<svg width="41" height="40" viewBox="0 0 41 40" fill="none" xmlns="http://www.w3.org/2000/svg">
<path d="M40.5 20C40.5 8.95317 31.5468 0 20.5 0C9.45317 0 0.5 8.95317 0.5 20C0.5 29.9844 7.8125 38.2578 17.375 39.7578V25.7812H12.2968V20H17.375V15.5937C17.375 10.582 20.3594 7.8125 24.9297 7.8125C27.1172 7.8125 29.4062 8.20312 29.4062 8.20312V13.125H26.8828C24.3984 13.125 23.625 14.668 23.625 16.25V20H29.1718L28.2852 25.7812H23.625V39.7578C33.1875 38.2578 40.5 29.9844 40.5 20Z" fill="#1877F2"/>
<path d="M28.2852 25.7812L29.1719 20H23.625V16.25C23.625 14.668 24.3985 13.125 26.8829 13.125H29.4063V8.20312C29.4063 8.20312 27.1172 7.8125 24.9297 7.8125C20.3595 7.8125 17.375 10.582 17.375 15.5937V20H12.2969V25.7812H17.375V39.7578C18.3945 39.918 19.4375 40 20.5 40C21.5625 40 22.6055 39.918 23.625 39.7578V25.7812H28.2852Z" fill="white"/>
</svg>
