<svg width="40" height="40" viewBox="0 0 40 40" fill="none" xmlns="http://www.w3.org/2000/svg">
<path d="M0 20C0 8.9543 8.9543 0 20 0C31.0457 0 40 8.9543 40 20C40 31.0457 31.0457 40 20 40C8.9543 40 0 31.0457 0 20Z" fill="white"/>
<path d="M20 14.6851C21.6274 14.6851 22.7252 15.3881 23.3511 15.9755L25.7971 13.5873C24.2948 12.191 22.34 11.334 20 11.334C16.6104 11.334 13.683 13.2792 12.2578 16.1103L15.06 18.2866C15.763 16.1969 17.7082 14.6851 20 14.6851V14.6851Z" fill="#EA4335"/>
<path d="M28.3161 20.1937C28.3161 19.4811 28.2583 18.9611 28.1331 18.4219H19.9961V21.6382H24.7724C24.6761 22.4374 24.1561 23.6411 23.0005 24.45L25.7354 26.5685C27.3724 25.0567 28.3161 22.8322 28.3161 20.1937V20.1937Z" fill="#4285F4"/>
<path d="M15.0683 21.7158C14.8854 21.1765 14.7794 20.5987 14.7794 20.0017C14.7794 19.4047 14.8854 18.8269 15.0587 18.2876L12.2565 16.1113C11.6691 17.2861 11.332 18.6054 11.332 20.0017C11.332 21.398 11.6691 22.7173 12.2565 23.8921L15.0683 21.7158V21.7158Z" fill="#FBBC05"/>
<path d="M19.9982 28.6674C22.3382 28.6674 24.3027 27.8971 25.7375 26.5682L23.0027 24.4497C22.2708 24.96 21.2886 25.3163 19.9982 25.3163C17.7064 25.3163 15.7612 23.8045 15.0678 21.7148L12.2656 23.8911C13.6908 26.7223 16.6086 28.6674 19.9982 28.6674V28.6674Z" fill="#34A853"/>
</svg>
