<svg width="142" height="85" viewBox="0 0 142 85" fill="none" xmlns="http://www.w3.org/2000/svg">
<path d="M110.143 0.25C102.965 22.919 81.7583 39.3488 56.7145 39.3488C31.6708 39.3488 10.4644 22.919 3.28608 0.25H0.146484C7.42528 24.6 29.9972 42.3488 56.7145 42.3488C83.4319 42.3488 106.004 24.6 113.283 0.25H110.143Z" fill="#56B2FF"/>
<path d="M141.679 80.7551C137.496 81.5187 133.186 81.9175 128.782 81.9175C89.3677 81.9175 57.416 49.9659 57.416 10.5515C57.416 7.0532 57.6677 3.61364 58.154 0.25H55.1238C54.6572 3.61703 54.416 7.05613 54.416 10.5515C54.416 51.6227 87.7108 84.9175 128.782 84.9175C133.181 84.9175 137.49 84.5356 141.679 83.8031V80.7551Z" fill="#56B2FF"/>
</svg>
