<svg xmlns="http://www.w3.org/2000/svg" viewBox="0 0 89 89"><defs><style>.cls-1{fill:#ccc;}.cls-2{fill:none;}.cls-3{fill:#464747;}</style></defs><g id="Layer_2" data-name="Layer 2"><g id="Layer_1-2" data-name="Layer 1"><rect class="cls-1" width="89" height="89" rx="44.5"/><line class="cls-2" x1="59.48" y1="68.3" x2="29.49" y2="68.3"/><path class="cls-3" d="M44.36,44.5A16.74,16.74,0,0,0,27.9,61.09a15.5,15.5,0,0,0,.31,3.12,5.73,5.73,0,0,0,5.8,4.3H54.72c2.49,0,5.46-1.53,6-4.37A15.67,15.67,0,0,0,61.07,61,16.83,16.83,0,0,0,44.36,44.5ZM58.8,63.74c-.34,1.65-2.29,2.77-4.08,2.77H34a3.75,3.75,0,0,1-3.84-2.69,13.74,13.74,0,0,1-.27-2.73A14.77,14.77,0,0,1,44.36,46.5,14.93,14.93,0,0,1,59.07,61,13.74,13.74,0,0,1,58.8,63.74Z"/><path class="cls-3" d="M44.48,20.3A11.34,11.34,0,1,0,55.82,31.64,11.35,11.35,0,0,0,44.48,20.3Zm0,20.68a9.34,9.34,0,1,1,9.34-9.34A9.34,9.34,0,0,1,44.48,41Z"/></g></g></svg>