<svg width="13" height="14" viewBox="0 0 13 14" fill="none" xmlns="http://www.w3.org/2000/svg">
<path d="M11.6641 6.5944L6.46351 12.3909C5.82641 13.1011 4.96231 13.5 4.0613 13.5C3.1603 13.5 2.2962 13.1011 1.65909 12.3909C1.02198 11.6808 0.664063 10.7177 0.664062 9.71343C0.664063 8.70917 1.02198 7.74604 1.65909 7.03592L6.85964 1.23937C7.28438 0.765961 7.86044 0.5 8.46111 0.5C9.06178 0.5 9.63785 0.765961 10.0626 1.23937C10.4873 1.71279 10.7259 2.35487 10.7259 3.02438C10.7259 3.69389 10.4873 4.33598 10.0626 4.80939L4.85638 10.6059C4.64401 10.8426 4.35598 10.9756 4.05564 10.9756C3.75531 10.9756 3.46728 10.8426 3.25491 10.6059C3.04254 10.3692 2.92323 10.0482 2.92323 9.71343C2.92323 9.37867 3.04254 9.05763 3.25491 8.82092L8.05933 3.47221" stroke="#323232" stroke-linecap="round" stroke-linejoin="round"/>
</svg>
