<svg width="114" height="38" viewBox="0 0 114 38" fill="none" xmlns="http://www.w3.org/2000/svg">
<path d="M0 11.3004H5.4109V14.1141H5.48304C6.06021 13.0319 6.74559 12.2263 7.53919 11.6972C8.33278 11.1441 9.33079 10.8676 10.5332 10.8676C10.8458 10.8676 11.1585 10.8796 11.4711 10.9036C11.7837 10.9277 12.0723 10.9758 12.3368 11.0479V15.9899C11.9521 15.8696 11.5673 15.7855 11.1825 15.7374C10.8218 15.6652 10.437 15.6292 10.0282 15.6292C8.99411 15.6292 8.17647 15.7734 7.57526 16.062C6.97405 16.3506 6.5051 16.7594 6.16842 17.2885C5.85579 17.7935 5.65138 18.4068 5.55519 19.1282C5.45899 19.8497 5.4109 20.6433 5.4109 21.509V28.8317H0V11.3004Z" fill="white"/>
<path d="M25.6919 26.6313H25.6198C25.0185 27.5692 24.2129 28.2426 23.2029 28.6514C22.2169 29.0602 21.1708 29.2646 20.0646 29.2646C19.2469 29.2646 18.4533 29.1444 17.6838 28.9039C16.9383 28.6875 16.2769 28.3508 15.6998 27.8939C15.1226 27.4369 14.6657 26.8718 14.329 26.1984C13.9923 25.5251 13.824 24.7435 13.824 23.8537C13.824 22.8437 14.0044 21.99 14.3651 21.2926C14.7499 20.5952 15.2549 20.018 15.8801 19.5611C16.5294 19.1042 17.2629 18.7555 18.0806 18.515C18.8982 18.2504 19.7399 18.058 20.6057 17.9378C21.4954 17.8176 22.3732 17.7454 23.239 17.7214C24.1288 17.6973 24.9464 17.6853 25.6919 17.6853C25.6919 16.7234 25.3432 15.9658 24.6458 15.4127C23.9724 14.8356 23.1668 14.547 22.2289 14.547C21.3391 14.547 20.5215 14.7394 19.776 15.1241C19.0545 15.4849 18.4052 15.9899 17.8281 16.6392L14.9423 13.6812C15.9523 12.7433 17.1307 12.0459 18.4774 11.589C19.8241 11.108 21.2189 10.8676 22.6618 10.8676C24.249 10.8676 25.5476 11.072 26.5576 11.4808C27.5917 11.8656 28.4094 12.4427 29.0106 13.2123C29.6358 13.9818 30.0687 14.9318 30.3092 16.062C30.5497 17.1683 30.6699 18.4548 30.6699 19.9218V28.8317H25.6919V26.6313ZM24.3572 21.1483C23.9484 21.1483 23.4313 21.1723 22.8061 21.2204C22.2049 21.2445 21.6157 21.3407 21.0385 21.509C20.4854 21.6773 20.0044 21.9298 19.5956 22.2665C19.2108 22.6032 19.0185 23.0721 19.0185 23.6734C19.0185 24.3227 19.295 24.8036 19.8481 25.1163C20.4012 25.4289 20.9784 25.5852 21.5796 25.5852C22.1087 25.5852 22.6137 25.5131 23.0947 25.3688C23.5997 25.2245 24.0446 25.0201 24.4294 24.7555C24.8141 24.491 25.1147 24.1543 25.3312 23.7455C25.5717 23.3367 25.6919 22.8557 25.6919 22.3026V21.1483H24.3572Z" fill="white"/>
<path d="M34.0647 11.3004H39.2592V13.6812H39.3313C39.4996 13.3446 39.7401 13.0079 40.0528 12.6712C40.3654 12.3345 40.7381 12.0339 41.171 11.7694C41.6039 11.5049 42.0969 11.2884 42.65 11.1201C43.2031 10.9517 43.8043 10.8676 44.4536 10.8676C45.8244 10.8676 46.9306 11.084 47.7723 11.5169C48.614 11.9257 49.2633 12.5029 49.7202 13.2484C50.2012 13.9939 50.5258 14.8716 50.6942 15.8817C50.8625 16.8917 50.9467 17.9859 50.9467 19.1643V28.8317H45.5358V20.2465C45.5358 19.7414 45.5118 19.2244 45.4637 18.6953C45.4396 18.1422 45.3314 17.6372 45.139 17.1803C44.9707 16.7234 44.6941 16.3506 44.3093 16.062C43.9486 15.7734 43.4195 15.6292 42.7221 15.6292C42.0247 15.6292 41.4596 15.7614 41.0267 16.026C40.5938 16.2664 40.2572 16.6031 40.0167 17.036C39.8003 17.4448 39.656 17.9138 39.5838 18.4428C39.5117 18.9719 39.4756 19.525 39.4756 20.1022V28.8317H34.0647V11.3004Z" fill="white"/>
<path d="M54.7783 0H60.1892V18.2264L66.1773 11.3004H72.8146L65.8526 19.2003L72.995 28.8317H66.1773L60.2613 19.9579H60.1892V28.8317H54.7783V0Z" fill="white"/>
<path d="M94.9536 11.3004H99.9317V13.6091H100.004C100.22 13.2965 100.497 12.9838 100.833 12.6712C101.194 12.3345 101.603 12.0339 102.06 11.7694C102.541 11.5049 103.058 11.2884 103.611 11.1201C104.164 10.9517 104.753 10.8676 105.379 10.8676C106.677 10.8676 107.856 11.096 108.914 11.5529C109.972 11.9858 110.874 12.6111 111.619 13.4287C112.389 14.2223 112.978 15.1722 113.387 16.2785C113.796 17.3847 114 18.5991 114 19.9218C114 21.1483 113.808 22.3266 113.423 23.4569C113.062 24.5632 112.533 25.5491 111.836 26.4149C111.162 27.2806 110.333 27.978 109.347 28.5071C108.361 29.0121 107.242 29.2646 105.992 29.2646C104.862 29.2646 103.803 29.0963 102.817 28.7596C101.856 28.3989 101.062 27.7977 100.437 26.956H100.365V37.0563H94.9536V11.3004ZM99.9317 20.0661C99.9317 21.3888 100.304 22.4589 101.05 23.2766C101.819 24.0942 102.89 24.503 104.26 24.503C105.631 24.503 106.689 24.0942 107.435 23.2766C108.204 22.4589 108.589 21.3888 108.589 20.0661C108.589 18.7434 108.204 17.6733 107.435 16.8556C106.689 16.038 105.631 15.6292 104.26 15.6292C102.89 15.6292 101.819 16.038 101.05 16.8556C100.304 17.6733 99.9317 18.7434 99.9317 20.0661Z" fill="white"/>
<path d="M77.6738 11.1851V21.0613C77.6738 24.2398 80.2505 26.8165 83.4291 26.8165V26.8165C86.6076 26.8165 89.1843 24.2398 89.1843 21.0613V11.1851" stroke="#56B2FF" stroke-width="4.41606"/>
<path d="M91.3849 1.28418L75.5459 7.48207L91.3849 7.48206V1.28418Z" fill="url(#paint0_linear)"/>
<defs>
<linearGradient id="paint0_linear" x1="75.191" y1="1.28418" x2="91.5471" y2="1.28418" gradientUnits="userSpaceOnUse">
<stop stop-color="#56B2FF" stop-opacity="0"/>
<stop offset="0.606416" stop-color="#56B2FF"/>
</linearGradient>
</defs>
</svg>
